<svg width="17" height="18" viewBox="0 0 17 18" fill="none" xmlns="http://www.w3.org/2000/svg">
<g opacity="0.7">
<path d="M4.00456 14.625L5.06069 13.5H12.75V7.875C12.75 7.13025 12.58 6.42825 12.2772 5.8095L13.056 4.97925C13.5363 5.82525 13.8125 6.8175 13.8125 7.875V13.5H15.4062C15.5471 13.5 15.6823 13.5593 15.7819 13.6648C15.8815 13.7702 15.9375 13.9133 15.9375 14.0625C15.9375 14.2117 15.8815 14.3548 15.7819 14.4602C15.6823 14.5657 15.5471 14.625 15.4062 14.625H4.00456ZM2.50644 14.625H1.59375C1.45285 14.625 1.31773 14.5657 1.2181 14.4602C1.11847 14.3548 1.0625 14.2117 1.0625 14.0625C1.0625 13.9133 1.11847 13.7702 1.2181 13.6648C1.31773 13.5593 1.45285 13.5 1.59375 13.5H3.1875V7.875C3.18765 6.57838 3.61069 5.32159 4.38509 4.31715C5.15949 3.31271 6.23773 2.62224 7.4375 2.3625V2.25C7.4375 1.95163 7.54944 1.66548 7.7487 1.4545C7.94796 1.24353 8.21821 1.125 8.5 1.125C8.78179 1.125 9.05204 1.24353 9.2513 1.4545C9.45056 1.66548 9.5625 1.95163 9.5625 2.25V2.3625C10.6585 2.59905 11.6559 3.19638 12.4121 4.06913L11.662 4.86788C11.0874 4.19038 10.3321 3.71342 9.49603 3.50001C8.65997 3.2866 7.78242 3.34678 6.97933 3.6726C6.17625 3.99842 5.48542 4.57454 4.99811 5.32487C4.5108 6.07519 4.24994 6.96439 4.25 7.875V12.7676L2.5075 14.625H2.50644ZM7.4375 15.75H9.5625C9.5625 16.0484 9.45056 16.3345 9.2513 16.5455C9.05204 16.7565 8.78179 16.875 8.5 16.875C8.21821 16.875 7.94796 16.7565 7.7487 16.5455C7.54944 16.3345 7.4375 16.0484 7.4375 15.75Z" fill="black"/>
<path d="M2.50223 15.1009C2.40246 15.2039 2.26847 15.2612 2.12913 15.2606C1.98978 15.26 1.85624 15.2014 1.75729 15.0976C1.65835 14.9937 1.60191 14.8528 1.60014 14.7053C1.59837 14.5577 1.65142 14.4154 1.74786 14.3089L13.4354 1.85398C13.5351 1.75098 13.6691 1.6936 13.8085 1.69422C13.9478 1.69484 14.0813 1.7534 14.1803 1.85728C14.2792 1.96117 14.3357 2.10206 14.3374 2.24959C14.3392 2.39712 14.2862 2.53948 14.1897 2.64598L2.50223 15.1009Z" fill="black"/>
</g>
</svg>
