<svg width="14" height="15" viewBox="0 0 14 15" fill="none" xmlns="http://www.w3.org/2000/svg">
<g opacity="0.7">
<path d="M1.92887 13.2787H12.0714C13.2961 13.2787 13.9114 12.626 13.9114 11.3328V3.66696C13.9114 2.37375 13.2961 1.72098 12.0714 1.72098H1.92887C0.710117 1.72125 0.0888672 2.36785 0.0888672 3.66696V11.333C0.0888672 12.6324 0.710117 13.2787 1.92887 13.2787ZM9.82137 7.48446C9.55762 7.23348 9.25887 7.10142 8.94262 7.10142C8.61437 7.10142 8.32712 7.22089 8.05762 7.4783L5.40937 10.0146L4.32537 8.95982C4.07912 8.72759 3.81537 8.60196 3.53437 8.60196C3.27637 8.60196 3.02437 8.72142 2.78437 8.95366L1.03237 10.642V3.71785C1.03237 3.06482 1.36037 2.73214 1.94637 2.73214H12.0539C12.6339 2.73214 12.9679 3.06482 12.9679 3.71785V10.6487L9.82137 7.48446ZM4.45412 7.55357C5.21012 7.55357 5.83112 6.88821 5.83112 6.07205C5.83112 5.26232 5.21012 4.59053 4.45412 4.59053C3.69262 4.59053 3.07162 5.26232 3.07162 6.07205C3.07228 6.46471 3.21814 6.84109 3.47726 7.11876C3.73638 7.39644 4.08764 7.55279 4.45412 7.55357Z" fill="black"/>
</g>
</svg>
