<svg width="20" height="20" viewBox="0 0 20 20" fill="none" xmlns="http://www.w3.org/2000/svg">
<g opacity="0.7">
<path d="M2.5 13.3333V8.33332C2.5 7.8913 2.67559 7.46737 2.98816 7.15481C3.30072 6.84225 3.72464 6.66666 4.16667 6.66666C4.60869 6.66666 5.03262 6.84225 5.34518 7.15481C5.65774 7.46737 5.83333 7.8913 5.83333 8.33332V13.3333M2.5 10.8333H5.83333M8.33333 6.66666V11.6667M8.33333 11.6667C8.33333 12.1087 8.50893 12.5326 8.82149 12.8452C9.13405 13.1577 9.55797 13.3333 10 13.3333C10.442 13.3333 10.866 13.1577 11.1785 12.8452C11.4911 12.5326 11.6667 12.1087 11.6667 11.6667V10.8333C11.6667 10.3913 11.4911 9.96737 11.1785 9.65481C10.866 9.34225 10.442 9.16666 10 9.16666C9.55797 9.16666 9.13405 9.34225 8.82149 9.65481C8.50893 9.96737 8.33333 10.3913 8.33333 10.8333V11.6667ZM17.2767 9.99999C17.0932 9.68227 16.8101 9.43397 16.4711 9.29358C16.1321 9.15319 15.7563 9.12857 15.402 9.22352C15.0476 9.31848 14.7344 9.52771 14.5111 9.81877C14.2878 10.1098 14.1667 10.4664 14.1667 10.8333V11.6667C14.1667 12.0327 14.2873 12.3885 14.5097 12.6791C14.7321 12.9698 15.044 13.1792 15.3973 13.2749C15.7505 13.3707 16.1255 13.3475 16.4643 13.2089C16.803 13.0704 17.0868 12.8242 17.2717 12.5083" stroke="black" stroke-width="2" stroke-linecap="round" stroke-linejoin="round"/>
</g>
</svg>
