<svg width="15" height="15" viewBox="0 0 15 15" fill="none" xmlns="http://www.w3.org/2000/svg">
<g opacity="0.7">
<path d="M11.263 3.22749C10.7934 2.76063 10.1589 2.49754 9.49679 2.4952C8.83466 2.49286 8.19828 2.75146 7.72547 3.21499L3.56297 7.30499C3.44494 7.42119 3.28569 7.48591 3.12006 7.48497C2.95443 7.48403 2.79592 7.41752 2.67922 7.29999C2.62154 7.24184 2.57592 7.17286 2.545 7.09702C2.51408 7.02118 2.49846 6.93997 2.49904 6.85807C2.49962 6.77616 2.51639 6.69519 2.54839 6.61979C2.58038 6.54439 2.62697 6.47607 2.68547 6.41874L6.84672 2.32999C7.5547 1.63505 8.508 1.24707 9.50006 1.25011C10.4921 1.25315 11.443 1.64697 12.1467 2.34624C12.4958 2.69324 12.7729 3.10584 12.9619 3.56031C13.151 4.01478 13.2483 4.50215 13.2483 4.99437C13.2483 5.48659 13.151 5.97395 12.9619 6.42842C12.7729 6.88289 12.4958 7.29549 12.1467 7.64249L6.73172 13.035C6.27128 13.4927 5.64844 13.7496 4.99922 13.7496C4.35 13.7496 3.72716 13.4927 3.26672 13.035C3.03931 12.8088 2.85885 12.5399 2.73571 12.2438C2.61257 11.9477 2.54917 11.6301 2.54917 11.3094C2.54917 10.9886 2.61257 10.6711 2.73571 10.3749C2.85885 10.0788 3.03931 9.80991 3.26672 9.58374L8.31672 4.55499C8.43403 4.43851 8.59265 4.37314 8.75797 4.37314C8.92329 4.37314 9.08191 4.43851 9.19922 4.55499C9.25712 4.61271 9.30306 4.68128 9.33441 4.75679C9.36576 4.83229 9.38189 4.91324 9.38189 4.99499C9.38189 5.07675 9.36576 5.15769 9.33441 5.2332C9.30306 5.3087 9.25712 5.37728 9.19922 5.43499L4.15047 10.4637C4.03901 10.5746 3.95057 10.7063 3.89021 10.8514C3.82986 10.9966 3.79879 11.1522 3.79879 11.3094C3.79879 11.4665 3.82986 11.6222 3.89021 11.7673C3.95057 11.9124 4.03901 12.0442 4.15047 12.155C4.37612 12.38 4.68179 12.5064 5.00047 12.5064C5.31915 12.5064 5.62482 12.38 5.85047 12.155L11.263 6.76249C11.4959 6.53086 11.6808 6.25546 11.807 5.95212C11.9331 5.64879 11.9981 5.32351 11.9981 4.99499C11.9981 4.66647 11.9331 4.34119 11.807 4.03786C11.6808 3.73453 11.4959 3.45913 11.263 3.22749Z" fill="black"/>
</g>
</svg>
